<svg width="30" height="15" viewBox="0 0 30 15" fill="none" xmlns="http://www.w3.org/2000/svg">
<path d="M29.9653 12.6198C29.9662 13.1065 29.7967 13.5783 29.4861 13.9531C29.3112 14.164 29.0964 14.3384 28.854 14.4662C28.6116 14.5941 28.3464 14.6728 28.0735 14.698C27.8007 14.7231 27.5255 14.6942 27.2638 14.6129C27.0022 14.5315 26.7591 14.3993 26.5486 14.2239L15.3819 4.89059L4.19442 13.8906C3.98132 14.0636 3.73612 14.1929 3.47291 14.2709C3.2097 14.3488 2.93368 14.374 2.6607 14.345C2.38773 14.316 2.12318 14.2333 1.88227 14.1016C1.64136 13.97 1.42884 13.7921 1.25692 13.5781C1.06726 13.3625 0.924199 13.1101 0.836722 12.8366C0.749244 12.5632 0.719237 12.2746 0.74858 11.989C0.777924 11.7034 0.865986 11.4269 1.00724 11.1769C1.14849 10.927 1.33989 10.7089 1.56942 10.5364L14.0694 0.473924C14.4422 0.167504 14.9098 -8.45915e-06 15.3923 -8.45915e-06C15.8749 -8.45915e-06 16.3425 0.167504 16.7153 0.473924L29.2153 10.8906C29.4674 11.0996 29.6667 11.3651 29.797 11.6655C29.9273 11.9659 29.9849 12.2929 29.9653 12.6198Z" fill="#9A9698"/>
</svg>
