<svg width="45" height="45" viewBox="0 0 45 45" fill="none" xmlns="http://www.w3.org/2000/svg">
<path d="M13.475 17.7625V34.1262C13.475 35.0262 14.2114 35.7625 15.1114 35.7625H29.8386C30.7386 35.7625 31.475 35.0262 31.475 34.1262V17.7625H13.475ZM18.3841 32.4898H16.7477V21.0352H18.3841V32.4898ZM21.6568 32.4898H20.0205V21.0352H21.6568V32.4898ZM24.9296 32.4898H23.2932V21.0352H24.9296V32.4898ZM28.2023 32.4898H26.5659V21.0352H28.2023V32.4898Z" fill="#F23427"/>
<path d="M30.4365 11.5192H25.9365V9.78846C25.9355 9.51338 25.8257 9.24988 25.6312 9.05537C25.4367 8.86085 25.1732 8.75109 24.8981 8.75H20.0519C19.7768 8.75109 19.5133 8.86085 19.3188 9.05537C19.1243 9.24988 19.0146 9.51338 19.0135 9.78846V11.5192H14.5135C14.2383 11.52 13.9746 11.6296 13.78 11.8242C13.5854 12.0188 13.4757 12.2825 13.475 12.5577V14.2885H31.475V12.5577C31.4743 12.2825 31.3646 12.0188 31.17 11.8242C30.9754 11.6296 30.7117 11.52 30.4365 11.5192ZM24.5519 11.5192H20.3981V10.1526H24.5519V11.5192Z" fill="#F23427"/>
</svg>
