<svg width="30" height="15" viewBox="0 0 30 15" fill="none" xmlns="http://www.w3.org/2000/svg">
<path d="M0.741409 2.087C0.740459 1.60022 0.90999 1.12848 1.22058 0.753666C1.39547 0.542711 1.61027 0.368332 1.85266 0.240516C2.09505 0.112699 2.36027 0.0339569 2.63313 0.0087988C2.906 -0.0163593 3.18115 0.0125616 3.44283 0.0939043C3.7045 0.175247 3.94756 0.307412 4.15808 0.482833L15.3247 9.81617L26.5122 0.816168C26.7253 0.643113 26.9705 0.513881 27.2338 0.435898C27.497 0.357915 27.773 0.33272 28.046 0.36176C28.3189 0.3908 28.5835 0.473501 28.8244 0.605113C29.0653 0.736726 29.2778 0.914653 29.4497 1.12867C29.6394 1.34422 29.7825 1.59665 29.8699 1.87011C29.9574 2.14358 29.9874 2.43217 29.9581 2.71778C29.9287 3.00339 29.8407 3.27985 29.6994 3.52982C29.5582 3.77978 29.3668 3.99785 29.1372 4.17033L16.6372 14.2328C16.2645 14.5393 15.7969 14.7068 15.3143 14.7068C14.8318 14.7068 14.3642 14.5393 13.9914 14.2328L1.49141 3.81617C1.23929 3.60717 1.03999 3.34169 0.909681 3.04125C0.779371 2.74081 0.721722 2.41389 0.741409 2.087Z" fill="#9A9698"/>
</svg>
